<svg id="Layer_1" data-name="Layer 1" xmlns="http://www.w3.org/2000/svg" xmlns:xlink="http://www.w3.org/1999/xlink" viewBox="0 0 750.81 200.02"><defs><style>.cls-1{fill:url(#linear-gradient);}.cls-2{fill:url(#linear-gradient-2);}.cls-3{fill:url(#radial-gradient);}.cls-4{fill:#f7941e;}.cls-5{mask:url(#mask);}.cls-6{fill:#fff;}.cls-7{mask:url(#mask-2);}</style><linearGradient id="linear-gradient" x1="190.22" y1="569.1" x2="202.67" y2="569.1" gradientUnits="userSpaceOnUse"><stop offset="0" stop-color="#fff"/><stop offset="1"/></linearGradient><linearGradient id="linear-gradient-2" x1="301.2" y1="593.54" x2="230.12" y2="483.83" xlink:href="#linear-gradient"/><radialGradient id="radial-gradient" cx="222.88" cy="386.76" r="178.55" gradientUnits="userSpaceOnUse"><stop offset="0" stop-color="#0093d1"/><stop offset="1" stop-color="#0055a4"/></radialGradient><mask id="mask" x="82.61" y="157.52" width="8.56" height="24.08" maskUnits="userSpaceOnUse"><g transform="translate(-115.36 -399.54)"><g id="_Group_" data-name="&lt;Group&gt;"><path id="_Path_" data-name="&lt;Path&gt;" class="cls-1" d="M200.79,557.07s-7,12.37,1,22.22S206.58,556.3,200.79,557.07Z"/></g></g></mask><mask id="mask-2" x="13.52" y="5.31" width="180.92" height="134.39" maskUnits="userSpaceOnUse"><g transform="translate(-115.36 -399.54)"><g id="_Group_2" data-name="&lt;Group&gt;"><path id="_Compound_Path_" data-name="&lt;Compound Path&gt;" class="cls-2" d="M309.79,415.21H263.58V404.86L201.1,517.33l-1.42,2.54-.73-2.81-4-15.77-.13-.5.27-.4c.09-.18,10.07-16,11.57-29.2.57-5.14-.36-9.16-2.8-11.91-2.82-3.16-7.73-4.77-14.56-4.77-.7,0-1.41,0-2.15.06l-.93,0-.24-.91-3.7-14.52-.43-1.69,1.71.25a40.57,40.57,0,0,0,4.91.25c9.07,0,32-2.27,52.72-22.77h-99.3v20l-1,.17-12.05,2.07h48.59l.24.85,4,14.52.43,1.45H141.89v85a228.65,228.65,0,0,0,64.71-12.45c4.51-7.83,8.4-13.41,9.71-13.41l1.18.17.09,1.05A27.91,27.91,0,0,0,219.4,522q7.51-3.07,14.63-6.59a14.94,14.94,0,0,1-.52-3.87c0-6.08,11.56-29.6,14.54-29.6l1.13.08.08,1.06c.36,4.14,3.69,9.28,6.9,14.26.9,1.38,1.76,2.74,2.57,4.06a202.12,202.12,0,0,0,51.06-47.2Zm-46.23,74.64a13,13,0,0,1-12.95-13c0-5.37,10.26-26.11,12.91-26.11l1.11.09.08,1.05c.31,3.6,3.22,8.11,6,12.45,3,4.61,5.79,9,5.79,12.52A13,13,0,0,1,263.56,489.85Z"/></g></g></mask></defs><title>Synyc_Pressure_Cleaning_LLC_Opt3</title><g id="_Group_3" data-name="&lt;Group&gt;"><path id="_Compound_Path_2" data-name="&lt;Compound Path&gt;" class="cls-3" d="M264.73,414.05V400.43h0L200.09,516.76l-4-15.75s10.21-16.08,11.76-29.69-7.12-18.54-20.71-17.92l-3.71-14.53S216,443.5,244,414.05H140.73V434.2l-25.37,4.34h25.37v0h35.86l4,14.53H140.73V580.92h49.84a27,27,0,0,1-1.44-8.67c0-15.06,27-60.8,27.3-57.55,1.49,17.82,27.3,42.49,27.3,57.55a27.28,27.28,0,0,1-23.15,27,28.37,28.37,0,0,0,4.35.35,27.28,27.28,0,0,0,25.87-18.64H311V414.05ZM248.12,525a13.46,13.46,0,0,1-13.46-13.46c0-7.42,13.33-29.94,13.46-28.36.72,8.78,13.44,20.94,13.44,28.36A13.45,13.45,0,0,1,248.12,525Zm15.44-36.31a11.8,11.8,0,0,1-11.79-11.81c0-6.51,11.68-26.28,11.79-24.89.64,7.72,11.81,18.38,11.81,24.89A11.81,11.81,0,0,1,263.56,488.7Z" transform="translate(-115.36 -399.54)"/><path id="_Path_2" data-name="&lt;Path&gt;" class="cls-4" d="M214.94,530c0-.11,0-.23,0-.34-.19-2.17-18.16,28.22-18.16,38.25a18.15,18.15,0,0,0,18.16,18.15,19.09,19.09,0,0,0,3.48-.33A18.18,18.18,0,0,0,233,567.9C233,558,216.24,541.82,214.94,530Z" transform="translate(-115.36 -399.54)"/><g class="cls-5"><path id="_Path_3" data-name="&lt;Path&gt;" class="cls-6" d="M200.79,557.07s-7,12.37,1,22.22S206.58,556.3,200.79,557.07Z" transform="translate(-115.36 -399.54)"/></g><g class="cls-7"><path id="_Compound_Path_3" data-name="&lt;Compound Path&gt;" class="cls-6" d="M309.79,415.21H263.58V404.86L201.1,517.33l-1.42,2.54-.73-2.81-4-15.77-.13-.5.27-.4c.09-.18,10.07-16,11.57-29.2.57-5.14-.36-9.16-2.8-11.91-2.82-3.16-7.73-4.77-14.56-4.77-.7,0-1.41,0-2.15.06l-.93,0-.24-.91-3.7-14.52-.43-1.69,1.71.25a40.57,40.57,0,0,0,4.91.25c9.07,0,32-2.27,52.72-22.77h-99.3v20l-1,.17-12.05,2.07h48.59l.24.85,4,14.52.43,1.45H141.89v85a228.65,228.65,0,0,0,64.71-12.45c4.51-7.83,8.4-13.41,9.71-13.41l1.18.17.09,1.05A27.91,27.91,0,0,0,219.4,522q7.51-3.07,14.63-6.59a14.94,14.94,0,0,1-.52-3.87c0-6.08,11.56-29.6,14.54-29.6l1.13.08.08,1.06c.36,4.14,3.69,9.28,6.9,14.26.9,1.38,1.76,2.74,2.57,4.06a202.12,202.12,0,0,0,51.06-47.2Zm-46.23,74.64a13,13,0,0,1-12.95-13c0-5.37,10.26-26.11,12.91-26.11l1.11.09.08,1.05c.31,3.6,3.22,8.11,6,12.45,3,4.61,5.79,9,5.79,12.52A13,13,0,0,1,263.56,489.85Z" transform="translate(-115.36 -399.54)"/></g><polygon id="_Path_4" data-name="&lt;Path&gt;" class="cls-6" points="192.77 58.89 211.29 50.05 192.1 57.35 195.77 47 191.28 57.01 182.44 38.5 189.74 57.67 179.39 54.01 189.4 58.49 170.88 67.34 190.06 60.04 186.4 70.39 190.9 60.37 199.72 78.89 192.44 59.72 202.78 63.39 192.77 58.89"/><polygon id="_Path_5" data-name="&lt;Path&gt;" class="cls-6" points="51.89 137.8 66.89 130.64 51.35 136.55 54.33 128.17 50.69 136.28 43.53 121.28 49.44 136.81 41.07 133.84 49.17 137.48 34.19 144.63 49.71 138.74 46.74 147.11 50.38 139.01 57.53 153.98 51.63 138.46 60.01 141.44 51.89 137.8"/><polygon id="_Path_6" data-name="&lt;Path&gt;" class="cls-6" points="149.23 16.52 164.22 9.36 148.69 15.27 151.66 6.87 148.01 14.98 140.87 0 146.78 15.52 138.41 12.55 146.51 16.2 131.52 23.35 147.04 17.44 144.07 25.82 147.71 17.72 154.87 32.7 148.95 17.18 157.33 20.14 149.23 16.52"/></g><g id="_Group_4" data-name="&lt;Group&gt;"><g id="_Group_5" data-name="&lt;Group&gt;"><path id="_Compound_Path_4" data-name="&lt;Compound Path&gt;" class="cls-4" d="M866.17,552.76H850.24v-3.6H862.5v-9.65h3.67Z" transform="translate(-115.36 -399.54)"/><path id="_Compound_Path_5" data-name="&lt;Compound Path&gt;" class="cls-4" d="M866.17,537.46H850.24v-3.6H862.5v-9.65h3.67Z" transform="translate(-115.36 -399.54)"/><path id="_Compound_Path_6" data-name="&lt;Compound Path&gt;" class="cls-4" d="M853.1,522.17a3.18,3.18,0,0,1-1.3-.24,2.53,2.53,0,0,1-1.39-1.53,3.24,3.24,0,0,1-.17-1v-9.32a2.77,2.77,0,0,1,.18-1,2.69,2.69,0,0,1,.55-.89,2.77,2.77,0,0,1,2.13-.92h2.68v3.62h-1.86v7.66h8.58v-7.66h-1.84v-3.62h2.65a2.85,2.85,0,0,1,1.23.25,2.65,2.65,0,0,1,.9.67,2.69,2.69,0,0,1,.55.89,2.77,2.77,0,0,1,.18,1v9.32a3.23,3.23,0,0,1-.16,1,2.72,2.72,0,0,1-.51.89,2.58,2.58,0,0,1-.89.64,3.14,3.14,0,0,1-1.3.24Z" transform="translate(-115.36 -399.54)"/></g><g id="_Group_6" data-name="&lt;Group&gt;"><path id="_Compound_Path_7" data-name="&lt;Compound Path&gt;" class="cls-4" d="M344.54,490.72a7.65,7.65,0,0,1-3.65-2.44,8.16,8.16,0,0,1-1.71-4.38,16.23,16.23,0,0,1,1-6.69l7.06-21.78a9.29,9.29,0,0,1,2.19-3.59,27.71,27.71,0,0,1,3.77-3.47,23,23,0,0,1,4.32-2.61,9.72,9.72,0,0,1,3.95-1h77.76l-5.72,17.52h-65.1l-2.31,1-3.05,9.37,1.34,1.34H416a15.66,15.66,0,0,1,4.8.72,7.65,7.65,0,0,1,3.65,2.44,7.87,7.87,0,0,1,1.64,4.38,18,18,0,0,1-1,6.69l-7.06,21.78a11.67,11.67,0,0,1-2.19,3.59,21.25,21.25,0,0,1-3.71,3.47,26,26,0,0,1-4.32,2.62,9.49,9.49,0,0,1-4,1H326.1l5.72-17.52h65l2.43-1.46,2.8-8.88-1.09-1.34h-51.6A15.66,15.66,0,0,1,344.54,490.72Z" transform="translate(-115.36 -399.54)"/><path id="_Compound_Path_8" data-name="&lt;Compound Path&gt;" class="cls-4" d="M474,487.55l-26.17-42.83H476l15,24.34,30.54-24.34h28.23l-54.27,42.83-10.7,33.1H463.24Z" transform="translate(-115.36 -399.54)"/><path id="_Compound_Path_9" data-name="&lt;Compound Path&gt;" class="cls-4" d="M570.07,474.53l-15,46.12H533.57l24.7-75.93h23.36l28.72,46.48,15.09-46.48h21.41l-24.7,75.93H599.27Z" transform="translate(-115.36 -399.54)"/><path id="_Compound_Path_10" data-name="&lt;Compound Path&gt;" class="cls-4" d="M681.53,487.55l-26.16-42.83H683.6l15,24.34,30.55-24.34h28.23l-54.27,42.83-10.71,33.1H670.82Z" transform="translate(-115.36 -399.54)"/><path id="_Compound_Path_11" data-name="&lt;Compound Path&gt;" class="cls-4" d="M762.87,452.14A20.2,20.2,0,0,1,768,448a23.32,23.32,0,0,1,6.09-2.44,27.06,27.06,0,0,1,6.39-.79h55.48a18,18,0,0,1,5.54.85,11.49,11.49,0,0,1,4.44,2.62,9,9,0,0,1,2.49,4.32,10.17,10.17,0,0,1-.42,5.84l-4.14,12.78H822.31l2.92-8.89H779.6l-13.26,40.89H812l2.8-8.76h21.54L832.17,507a16.28,16.28,0,0,1-3.41,5.84,22.77,22.77,0,0,1-5.23,4.32,23.49,23.49,0,0,1-6.14,2.62,24,24,0,0,1-6.15.85H755.75a20.46,20.46,0,0,1-5.84-.79,11.62,11.62,0,0,1-4.5-2.43,7.62,7.62,0,0,1-2.37-4.2,12.64,12.64,0,0,1,.55-6.21l15.81-48.67A17.85,17.85,0,0,1,762.87,452.14Z" transform="translate(-115.36 -399.54)"/></g><g id="_Group_7" data-name="&lt;Group&gt;"><path id="_Compound_Path_12" data-name="&lt;Compound Path&gt;" class="cls-4" d="M321.6,539.72h21.55l.8-.48,1.21-3.71-.48-.48H323.13l1.89-5.8h25.74a1.94,1.94,0,0,1,1.11.34,3.06,3.06,0,0,1,.85.87,3.34,3.34,0,0,1,.46,1.14,2.5,2.5,0,0,1,0,1.19l-2.58,8a8,8,0,0,1-1.13,2.21,6.08,6.08,0,0,1-1.51,1.49,5.86,5.86,0,0,1-1.73.83,6.46,6.46,0,0,1-1.75.26H326.83L324,554.38h-7.13Z" transform="translate(-115.36 -399.54)"/><path id="_Compound_Path_13" data-name="&lt;Compound Path&gt;" class="cls-4" d="M354.75,539.72h20.58a2.27,2.27,0,0,0,.55-.24.88.88,0,0,0,.26-.24l1.21-3.71a.53.53,0,0,0-.49-.48H356.28l1.89-5.8H383a1.88,1.88,0,0,1,1.07.34,3.39,3.39,0,0,1,.86.87,3,3,0,0,1,.48,1.14,2.38,2.38,0,0,1,0,1.19l-2.57,8a6.18,6.18,0,0,1-1.31,2.21,7.17,7.17,0,0,1-2,1.51,9.34,9.34,0,0,1-2.41.85,12,12,0,0,1-2.48.26l6.77,8.78h-9.91l-7-8.78H360l-2.86,8.78H350Z" transform="translate(-115.36 -399.54)"/><path id="_Compound_Path_14" data-name="&lt;Compound Path&gt;" class="cls-4" d="M390.4,529.25h26.1l-1.89,5.8h-19l-1.29,4h10l-1.9,5.8h-10l-1.2,3.78h19l-1.89,5.8H382.22Z" transform="translate(-115.36 -399.54)"/><path id="_Compound_Path_15" data-name="&lt;Compound Path&gt;" class="cls-4" d="M418.3,544.47a2.56,2.56,0,0,1-1.21-.8,2.74,2.74,0,0,1-.57-1.45,5.43,5.43,0,0,1,.35-2.22l2.33-7.21a3.19,3.19,0,0,1,.73-1.19,9.11,9.11,0,0,1,1.25-1.14,7.29,7.29,0,0,1,1.43-.87,3.14,3.14,0,0,1,1.3-.34h25.75l-1.9,5.8H426.21l-.76.32-1,3.1.44.44H442a5.09,5.09,0,0,1,1.59.25,2.42,2.42,0,0,1,1.75,2.25,5.88,5.88,0,0,1-.32,2.22l-2.33,7.21a4.11,4.11,0,0,1-.73,1.19,7.53,7.53,0,0,1-1.23,1.15,8.89,8.89,0,0,1-1.43.86,3.08,3.08,0,0,1-1.33.34H412.19l1.9-5.8H435.6l.8-.48.93-2.94-.36-.44H419.89A4.82,4.82,0,0,1,418.3,544.47Z" transform="translate(-115.36 -399.54)"/><path id="_Compound_Path_16" data-name="&lt;Compound Path&gt;" class="cls-4" d="M451.45,544.47a2.56,2.56,0,0,1-1.21-.8,2.66,2.66,0,0,1-.56-1.45A5.24,5.24,0,0,1,450,540l2.33-7.21a3.19,3.19,0,0,1,.73-1.19,9.11,9.11,0,0,1,1.25-1.14,7.29,7.29,0,0,1,1.43-.87,3.14,3.14,0,0,1,1.31-.34h25.74l-1.9,5.8H459.36l-.76.32-1,3.1.44.44h17.08a5.09,5.09,0,0,1,1.59.25,2.56,2.56,0,0,1,1.21.8,2.65,2.65,0,0,1,.55,1.45,6.32,6.32,0,0,1-.32,2.22l-2.34,7.21a4.11,4.11,0,0,1-.73,1.19,7.89,7.89,0,0,1-1.22,1.15,9,9,0,0,1-1.44.86,3.08,3.08,0,0,1-1.32.34H445.34l1.9-5.8h21.51l.81-.48.92-2.94-.36-.44H453A4.82,4.82,0,0,1,451.45,544.47Z" transform="translate(-115.36 -399.54)"/><path id="_Compound_Path_17" data-name="&lt;Compound Path&gt;" class="cls-4" d="M486.68,529.25h7.09l-6.29,19.33h15.11l6.28-19.33H516l-6.73,20.62a5.39,5.39,0,0,1-1.12,1.94,7.79,7.79,0,0,1-3.77,2.29,7.86,7.86,0,0,1-2,.28H484a6.65,6.65,0,0,1-1.94-.26,3.82,3.82,0,0,1-1.49-.8,2.57,2.57,0,0,1-.78-1.39,4.24,4.24,0,0,1,.18-2.06Z" transform="translate(-115.36 -399.54)"/><path id="_Compound_Path_18" data-name="&lt;Compound Path&gt;" class="cls-4" d="M516.44,539.72H537a2.35,2.35,0,0,0,.54-.24.88.88,0,0,0,.26-.24l1.21-3.71a.52.52,0,0,0-.48-.48H518l1.9-5.8h24.81a1.86,1.86,0,0,1,1.07.34,3.43,3.43,0,0,1,.87.87,3,3,0,0,1,.48,1.14,2.5,2.5,0,0,1,0,1.19l-2.58,8a6,6,0,0,1-1.31,2.21,7.27,7.27,0,0,1-2,1.51,9.41,9.41,0,0,1-2.42.85,11.88,11.88,0,0,1-2.48.26l6.77,8.78h-9.91l-7-8.78h-4.47l-2.86,8.78h-7.13Z" transform="translate(-115.36 -399.54)"/><path id="_Compound_Path_19" data-name="&lt;Compound Path&gt;" class="cls-4" d="M552.09,529.25H578.2l-1.9,5.8h-19L556,539h10l-1.89,5.8h-10l-1.21,3.78h19l-1.89,5.8h-26.1Z" transform="translate(-115.36 -399.54)"/><path id="_Compound_Path_20" data-name="&lt;Compound Path&gt;" class="cls-4" d="M602.27,531.7a6.82,6.82,0,0,1,1.69-1.39,7.61,7.61,0,0,1,2-.8,8.6,8.6,0,0,1,2.12-.26h18.36a5.86,5.86,0,0,1,1.84.28,3.73,3.73,0,0,1,1.47.87,2.93,2.93,0,0,1,.82,1.43,3.37,3.37,0,0,1-.14,1.93L629.07,538h-7.13l1-2.94H607.8l-4.39,13.53h15.11l.93-2.9h7.13l-1.37,4.19a5.56,5.56,0,0,1-1.13,1.94,8,8,0,0,1-5.8,2.57H599.91a6.58,6.58,0,0,1-1.93-.26,3.79,3.79,0,0,1-1.5-.8,2.57,2.57,0,0,1-.78-1.39,4.24,4.24,0,0,1,.18-2.06l5.24-16.11A5.89,5.89,0,0,1,602.27,531.7Z" transform="translate(-115.36 -399.54)"/><path id="_Compound_Path_21" data-name="&lt;Compound Path&gt;" class="cls-4" d="M635.8,529.25h7.09l-6.28,19.33h19l-1.89,5.8H627.62Z" transform="translate(-115.36 -399.54)"/><path id="_Compound_Path_22" data-name="&lt;Compound Path&gt;" class="cls-4" d="M665.77,529.25h26.1l-1.89,5.8H671l-1.29,4h10l-1.9,5.8h-10l-1.2,3.78h19l-1.89,5.8H657.59Z" transform="translate(-115.36 -399.54)"/><path id="_Compound_Path_23" data-name="&lt;Compound Path&gt;" class="cls-4" d="M720.27,554.38H712.7l-.85-3.38H697.11l-3,3.38h-7.61L708,529.25h7.09Zm-9.38-9.22-1.82-8.26-7.13,8.26Z" transform="translate(-115.36 -399.54)"/><path id="_Compound_Path_24" data-name="&lt;Compound Path&gt;" class="cls-4" d="M735.18,539.12l-5,15.26h-7.13l8.18-25.13H739l9.51,15.39,5-15.39h7.09l-8.18,25.13h-7.58Z" transform="translate(-115.36 -399.54)"/><path id="_Compound_Path_25" data-name="&lt;Compound Path&gt;" class="cls-4" d="M756.28,554.38l1.9-5.8h5.48l4.39-13.53h-5.48l1.89-5.8h18l-1.89,5.8h-5.48l-4.39,13.53h5.47l-1.89,5.8Z" transform="translate(-115.36 -399.54)"/><path id="_Compound_Path_26" data-name="&lt;Compound Path&gt;" class="cls-4" d="M790.28,539.12l-4.95,15.26H778.2l8.18-25.13h7.73l9.51,15.39,5-15.39h7.09l-8.18,25.13H800Z" transform="translate(-115.36 -399.54)"/><path id="_Compound_Path_27" data-name="&lt;Compound Path&gt;" class="cls-4" d="M829.88,539h15.83l-3.54,10.87a5.56,5.56,0,0,1-1.13,1.94,8,8,0,0,1-5.8,2.57H816.87a6.58,6.58,0,0,1-1.93-.26,3.79,3.79,0,0,1-1.5-.8,2.57,2.57,0,0,1-.78-1.39,4.24,4.24,0,0,1,.18-2.06l5.24-16.11a5.89,5.89,0,0,1,1.15-2.06,6.82,6.82,0,0,1,1.69-1.39,7.61,7.61,0,0,1,2-.8,8.6,8.6,0,0,1,2.12-.26h23.84l-1.89,5.8H824.76l-4.39,13.53h15.11l1.21-3.78H828Z" transform="translate(-115.36 -399.54)"/></g></g></svg>